<svg width="68" height="66" viewBox="0 0 68 66" fill="none" xmlns="http://www.w3.org/2000/svg">
<g filter="url(#filter0_d_164_106)">
<circle cx="34" cy="30" r="30" fill="#FFCB00"/>
<circle cx="34" cy="30" r="29" stroke="#989898" stroke-width="2"/>
</g>
<g clip-path="url(#clip0_164_106)">
<path d="M45.25 30C45.25 23.7891 40.2109 18.75 34 18.75V41.25C40.2109 41.25 45.25 36.2109 45.25 30ZM19 30C19 26.0218 20.5804 22.2064 23.3934 19.3934C26.2064 16.5804 30.0218 15 34 15C37.9782 15 41.7936 16.5804 44.6066 19.3934C47.4196 22.2064 49 26.0218 49 30C49 33.9782 47.4196 37.7936 44.6066 40.6066C41.7936 43.4196 37.9782 45 34 45C30.0218 45 26.2064 43.4196 23.3934 40.6066C20.5804 37.7936 19 33.9782 19 30Z" fill="black"/>
</g>
<defs>
<filter id="filter0_d_164_106" x="0" y="0" width="68" height="66" filterUnits="userSpaceOnUse" color-interpolation-filters="sRGB">
<feFlood flood-opacity="0" result="BackgroundImageFix"/>
<feColorMatrix in="SourceAlpha" type="matrix" values="0 0 0 0 0 0 0 0 0 0 0 0 0 0 0 0 0 0 127 0" result="hardAlpha"/>
<feOffset dy="4"/>
<feGaussianBlur stdDeviation="2"/>
<feComposite in2="hardAlpha" operator="out"/>
<feColorMatrix type="matrix" values="0 0 0 0 0 0 0 0 0 0 0 0 0 0 0 0 0 0 0.25 0"/>
<feBlend mode="normal" in2="BackgroundImageFix" result="effect1_dropShadow_164_106"/>
<feBlend mode="normal" in="SourceGraphic" in2="effect1_dropShadow_164_106" result="shape"/>
</filter>
<clipPath id="clip0_164_106">
<rect width="30" height="30" fill="white" transform="translate(19 15)"/>
</clipPath>
</defs>
</svg>
