<svg width="236" height="55" viewBox="0 0 236 55" fill="none" xmlns="http://www.w3.org/2000/svg">
<path d="M102.584 20H119.384C122.184 20 124.21 20.64 125.464 21.92C126.744 23.1733 127.384 25.2 127.384 28V32C127.384 34.8 126.744 36.84 125.464 38.12C124.21 39.3733 122.184 40 119.384 40H109.784V48H102.584V20ZM120.184 28C120.184 26.4 119.384 25.6 117.784 25.6H109.784V34.4H117.784C119.384 34.4 120.184 33.6 120.184 32V28ZM152.182 42C152.182 44 151.609 45.5733 150.462 46.72C149.342 47.84 147.782 48.4 145.782 48.4H136.582C134.582 48.4 133.009 47.84 131.862 46.72C130.742 45.5733 130.182 44 130.182 42V32.8C130.182 30.8 130.742 29.24 131.862 28.12C133.009 26.9733 134.582 26.4 136.582 26.4H145.782C147.782 26.4 149.342 26.9733 150.462 28.12C151.609 29.24 152.182 30.8 152.182 32.8V42ZM145.182 33.4C145.182 32.3333 144.649 31.8 143.582 31.8H138.782C137.715 31.8 137.182 32.3333 137.182 33.4V41.4C137.182 42.4667 137.715 43 138.782 43H143.582C144.649 43 145.182 42.4667 145.182 41.4V33.4ZM166.577 48C164.791 48.2667 163.084 48.4 161.457 48.4C159.857 48.4 158.511 47.8533 157.417 46.76C156.324 45.6667 155.777 44.2133 155.777 42.4V20H162.777V41.4C162.777 41.8 162.911 42.1333 163.177 42.4C163.444 42.6667 163.777 42.8 164.177 42.8H166.577V48ZM178.171 27.6V48H171.171V33H168.171V27.6H178.171ZM171.171 19.6H178.171V25.2H171.171V19.6ZM196.984 48C194.397 48.2667 191.864 48.4 189.384 48.4C187.57 48.4 186.117 47.8533 185.024 46.76C183.93 45.6667 183.384 44.2133 183.384 42.4V32.2H180.984V26.8H183.384L184.184 22H190.384V26.8H195.384V32.2H190.384V41.4C190.384 41.8 190.517 42.1333 190.784 42.4C191.05 42.6667 191.384 42.8 191.784 42.8H196.984V48ZM207.82 27.6V48H200.82V33H197.82V27.6H207.82ZM200.82 19.6H207.82V25.2H200.82V19.6ZM218.832 39.6V48H211.832V20H218.832V34.2H222.032L226.432 26.8H233.832L227.832 37L233.832 48H226.432L221.832 39.6H218.832Z" fill="white"/>
<path fill-rule="evenodd" clip-rule="evenodd" d="M16.9744 0L0 55H33.0256L50 0H16.9744Z" fill="#009440"/>
<path fill-rule="evenodd" clip-rule="evenodd" d="M66.5145 0L49.54 55H82.5656L99.54 0H66.5145Z" fill="#FFCB00"/>
</svg>
